<svg width="80" height="80" viewBox="0 0 80 80" fill="none" xmlns="http://www.w3.org/2000/svg">
<g filter="url(#filter0_d_11_8)">
<g clip-path="url(#clip0_11_8)">
<rect x="8" y="6" width="64" height="64" rx="8" fill="white"/>
<path d="M15.152 25.84H18.858V36.244H19.028C19.4133 35.292 19.9913 34.4987 20.762 33.864C21.5553 33.2293 22.632 32.912 23.992 32.912C25.8053 32.912 27.2107 33.5127 28.208 34.714C29.228 35.8927 29.738 37.5813 29.738 39.78V51H26.032V40.222C26.032 37.4793 24.9213 36.108 22.7 36.108C22.224 36.108 21.748 36.176 21.272 36.312C20.8187 36.4253 20.4107 36.6067 20.048 36.856C19.6853 37.1053 19.3907 37.4227 19.164 37.808C18.96 38.1933 18.858 38.6353 18.858 39.134V51H15.152V25.84Z" fill="#1B1C1A"/>
<path d="M32.602 56.134L42.734 25.84H46.882L36.75 56.134H32.602Z" fill="#D2691E"/>
<path d="M66.656 52.666C66.656 54.502 65.9533 55.8847 64.548 56.814C63.1427 57.7433 60.8533 58.208 57.68 58.208C56.2293 58.208 54.994 58.106 53.974 57.902C52.9767 57.7207 52.1493 57.4487 51.492 57.086C50.8573 56.7233 50.3927 56.2813 50.098 55.76C49.8033 55.2387 49.656 54.638 49.656 53.958C49.656 52.9833 49.9167 52.224 50.438 51.68C50.982 51.136 51.73 50.762 52.682 50.558V50.184C51.3447 49.7533 50.676 48.8467 50.676 47.464C50.676 46.5573 50.982 45.866 51.594 45.39C52.206 44.8913 52.9427 44.54 53.804 44.336V44.2C52.7613 43.7013 51.9567 43.01 51.39 42.126C50.846 41.2193 50.574 40.1653 50.574 38.964C50.574 37.1507 51.1747 35.6887 52.376 34.578C53.6 33.4673 55.3453 32.912 57.612 32.912C58.8587 32.912 59.924 33.0933 60.808 33.456V32.98C60.808 32.1867 60.9893 31.5747 61.352 31.144C61.7373 30.6907 62.3267 30.464 63.12 30.464H65.84V33.456H62.236V34.17C63.0293 34.6913 63.6413 35.3713 64.072 36.21C64.5027 37.026 64.718 37.944 64.718 38.964C64.718 40.7547 64.106 42.2053 62.882 43.316C61.658 44.404 59.9127 44.948 57.646 44.948C56.7847 44.948 56.014 44.8573 55.334 44.676C54.8807 44.8347 54.484 45.0613 54.144 45.356C53.804 45.628 53.634 45.9907 53.634 46.444C53.634 46.92 53.8493 47.26 54.28 47.464C54.7107 47.668 55.3227 47.77 56.116 47.77H60.468C62.644 47.77 64.2193 48.212 65.194 49.096C66.1687 49.9573 66.656 51.1473 66.656 52.666ZM63.188 53.074C63.188 52.462 62.95 51.9747 62.474 51.612C62.0207 51.2493 61.182 51.068 59.958 51.068H53.974C53.158 51.544 52.75 52.224 52.75 53.108C52.75 53.8333 53.0333 54.4113 53.6 54.842C54.1893 55.2953 55.1753 55.522 56.558 55.522H58.87C61.7487 55.522 63.188 54.706 63.188 53.074ZM57.646 42.262C58.734 42.262 59.5727 42.024 60.162 41.548C60.774 41.0493 61.08 40.29 61.08 39.27V38.59C61.08 37.57 60.774 36.822 60.162 36.346C59.5727 35.8473 58.734 35.598 57.646 35.598C56.558 35.598 55.708 35.8473 55.096 36.346C54.5067 36.822 54.212 37.57 54.212 38.59V39.27C54.212 40.29 54.5067 41.0493 55.096 41.548C55.708 42.024 56.558 42.262 57.646 42.262Z" fill="#1B1C1A"/>
</g>
<rect x="8.5" y="6.5" width="63" height="63" rx="7.5" stroke="#E5E7EB"/>
</g>
<defs>
<filter id="filter0_d_11_8" x="0" y="0" width="80" height="80" filterUnits="userSpaceOnUse" color-interpolation-filters="sRGB">
<feFlood flood-opacity="0" result="BackgroundImageFix"/>
<feColorMatrix in="SourceAlpha" type="matrix" values="0 0 0 0 0 0 0 0 0 0 0 0 0 0 0 0 0 0 127 0" result="hardAlpha"/>
<feOffset dy="2"/>
<feGaussianBlur stdDeviation="4"/>
<feComposite in2="hardAlpha" operator="out"/>
<feColorMatrix type="matrix" values="0 0 0 0 0 0 0 0 0 0 0 0 0 0 0 0 0 0 0.0784314 0"/>
<feBlend mode="normal" in2="BackgroundImageFix" result="effect1_dropShadow_11_8"/>
<feBlend mode="normal" in="SourceGraphic" in2="effect1_dropShadow_11_8" result="shape"/>
</filter>
<clipPath id="clip0_11_8">
<rect x="8" y="6" width="64" height="64" rx="8" fill="white"/>
</clipPath>
</defs>
</svg>
