<svg width="80" height="80" viewBox="0 0 80 80" fill="none" xmlns="http://www.w3.org/2000/svg">
<g filter="url(#filter0_d_12_13)">
<rect x="8" y="6" width="64" height="64" rx="8" fill="white"/>
<rect x="8.5" y="6.5" width="63" height="63" rx="7.5" stroke="#E5E7EB"/>
<path d="M13.5184 23.4H17.8784V35.64H18.0784C18.5318 34.52 19.2118 33.5867 20.1184 32.84C21.0518 32.0933 22.3184 31.72 23.9184 31.72C26.0518 31.72 27.7051 32.4267 28.8784 33.84C30.0784 35.2267 30.6784 37.2133 30.6784 39.8V53H26.3184V40.32C26.3184 37.0933 25.0118 35.48 22.3984 35.48C21.8384 35.48 21.2784 35.56 20.7184 35.72C20.1851 35.8533 19.7051 36.0667 19.2784 36.36C18.8518 36.6533 18.5051 37.0267 18.2384 37.48C17.9984 37.9333 17.8784 38.4533 17.8784 39.04V53H13.5184V23.4Z" fill="#1B1C1A"/>
<path d="M30.9208 59.04L42.8408 23.4H47.7208L35.8008 59.04H30.9208Z" fill="#D2691E"/>
<path d="M66.8524 54.911C66.8524 57.017 66.0464 58.603 64.4344 59.669C62.8224 60.735 60.1964 61.268 56.5564 61.268C54.8924 61.268 53.4754 61.151 52.3054 60.917C51.1614 60.709 50.2124 60.397 49.4584 59.981C48.7304 59.565 48.1974 59.058 47.8594 58.46C47.5214 57.862 47.3524 57.173 47.3524 56.393C47.3524 55.275 47.6514 54.404 48.2494 53.78C48.8734 53.156 49.7314 52.727 50.8234 52.493V52.064C49.2894 51.57 48.5224 50.53 48.5224 48.944C48.5224 47.904 48.8734 47.111 49.5754 46.565C50.2774 45.993 51.1224 45.59 52.1104 45.356V45.2C50.9144 44.628 49.9914 43.835 49.3414 42.821C48.7174 41.781 48.4054 40.572 48.4054 39.194C48.4054 37.114 49.0944 35.437 50.4724 34.163C51.8764 32.889 53.8784 32.252 56.4784 32.252C57.9084 32.252 59.1304 32.46 60.1444 32.876V32.33C60.1444 31.42 60.3524 30.718 60.7684 30.224C61.2104 29.704 61.8864 29.444 62.7964 29.444H65.9164V32.876H61.7824V33.695C62.6924 34.293 63.3944 35.073 63.8884 36.035C64.3824 36.971 64.6294 38.024 64.6294 39.194C64.6294 41.248 63.9274 42.912 62.5234 44.186C61.1194 45.434 59.1174 46.058 56.5174 46.058C55.5294 46.058 54.6454 45.954 53.8654 45.746C53.3454 45.928 52.8904 46.188 52.5004 46.526C52.1104 46.838 51.9154 47.254 51.9154 47.774C51.9154 48.32 52.1624 48.71 52.6564 48.944C53.1504 49.178 53.8524 49.295 54.7624 49.295H59.7544C62.2504 49.295 64.0574 49.802 65.1754 50.816C66.2934 51.804 66.8524 53.169 66.8524 54.911ZM62.8744 55.379C62.8744 54.677 62.6014 54.118 62.0554 53.702C61.5354 53.286 60.5734 53.078 59.1694 53.078H52.3054C51.3694 53.624 50.9014 54.404 50.9014 55.418C50.9014 56.25 51.2264 56.913 51.8764 57.407C52.5524 57.927 53.6834 58.187 55.2694 58.187H57.9214C61.2234 58.187 62.8744 57.251 62.8744 55.379ZM56.5174 42.977C57.7654 42.977 58.7274 42.704 59.4034 42.158C60.1054 41.586 60.4564 40.715 60.4564 39.545V38.765C60.4564 37.595 60.1054 36.737 59.4034 36.191C58.7274 35.619 57.7654 35.333 56.5174 35.333C55.2694 35.333 54.2944 35.619 53.5924 36.191C52.9164 36.737 52.5784 37.595 52.5784 38.765V39.545C52.5784 40.715 52.9164 41.586 53.5924 42.158C54.2944 42.704 55.2694 42.977 56.5174 42.977Z" fill="#1B1C1A"/>
</g>
<defs>
<filter id="filter0_d_12_13" x="0" y="0" width="80" height="80" filterUnits="userSpaceOnUse" color-interpolation-filters="sRGB">
<feFlood flood-opacity="0" result="BackgroundImageFix"/>
<feColorMatrix in="SourceAlpha" type="matrix" values="0 0 0 0 0 0 0 0 0 0 0 0 0 0 0 0 0 0 127 0" result="hardAlpha"/>
<feOffset dy="2"/>
<feGaussianBlur stdDeviation="4"/>
<feComposite in2="hardAlpha" operator="out"/>
<feColorMatrix type="matrix" values="0 0 0 0 0 0 0 0 0 0 0 0 0 0 0 0 0 0 0.0784314 0"/>
<feBlend mode="normal" in2="BackgroundImageFix" result="effect1_dropShadow_12_13"/>
<feBlend mode="normal" in="SourceGraphic" in2="effect1_dropShadow_12_13" result="shape"/>
</filter>
</defs>
</svg>
